<?xml version="1.0" encoding="utf-8"?>
<!-- Generator: Adobe Illustrator 25.4.1, SVG Export Plug-In . SVG Version: 6.00 Build 0)  -->
<svg version="1.1" id="Layer_1" xmlns="http://www.w3.org/2000/svg" xmlns:xlink="http://www.w3.org/1999/xlink" x="0px" y="0px"
	 viewBox="0 0 316.5 162.9" style="enable-background:new 0 0 316.5 162.9;" xml:space="preserve">
<style type="text/css">
	.st0{fill:#202529;}
</style>
<g>
	<g>
		<polygon class="st0" points="83.5,46 73.1,76.7 63,46 53.9,46 46,92 55.1,92 59.9,64.5 69,92 77.1,92 86.4,64.5 91,92 100.1,92 
			92.4,46 		"/>
		<path class="st0" d="M129.1,66.6c3-2.5,4.4-5.2,4.4-8.6c0-4-2.1-7.7-5.6-9.8c-2.6-1.6-6.2-2.3-11.6-2.3H107v46h14.6
			c5,0,8.3-1.2,11.2-4c2.7-2.6,4-5.7,4-9.6C136.8,73,134.3,69.3,129.1,66.6z M127.6,78.1c0,3.4-2.4,5-7.9,5h-3.2V72.1h2.5
			C122.8,72.1,127.6,73.2,127.6,78.1z M116.4,63.7v-8.8h2.5c2.5,0,5.4,0.7,5.4,4.2c0,3.8-3.1,4.5-5.7,4.5H116.4z"/>
		<path class="st0" d="M180.1,77.7c-3.9,3.9-7.6,6.4-13.4,6.4c-9,0-15.2-6.2-15.2-15.2c0-8.4,6.6-15.1,15.1-15.1
			c5,0,9.5,2.1,13.6,6.5l0.3,0.3l6.6-6.3l-0.2-0.3c-5-5.8-12.3-9.2-20-9.2c-13.9,0-24.4,10.3-24.4,24.1c0,14.2,10,24.2,24.3,24.2
			c9.1,0,14.4-3.4,19.9-8.8l0.3-0.3l-6.4-6.7L180.1,77.7z"/>
	</g>
	<g>
		<path class="st0" d="M55.8,115c-1.3,1.3-2.5,2-4.4,2c-3.2,0-5.4-2.2-5.4-5.4c0-3.2,2.5-5.3,5.4-5.3c1.7,0,3.3,0.7,4.4,2l-1.4,1.3
			c-0.9-1-1.9-1.5-3.1-1.5c-1.9,0-3.5,1.5-3.5,3.5c0,2.1,1.5,3.5,3.5,3.5c1.3,0,2.1-0.5,3.1-1.5L55.8,115z"/>
		<path class="st0" d="M61.7,106.5h2l3.9,10.2h-2l-0.8-2.1h-4.2l-0.8,2.1h-2L61.7,106.5z M62.7,109.2l-1.3,3.5h2.7L62.7,109.2z"/>
		<path class="st0" d="M70.2,106.5h2.4c1.3,0,2.2,0.2,2.9,0.8c0.5,0.5,0.8,1.3,0.8,2.1c0,1.1-0.4,1.9-1.3,2.4
			c-0.9,0.5-1.8,0.5-2.8,0.5v4.3h-1.9V106.5z M72.1,110.5h0.9c0.9,0,1.3-0.3,1.3-1c0-0.7-0.5-1.1-1.4-1.1h-0.8V110.5z"/>
		<path class="st0" d="M79.4,106.5h1.9v10.2h-1.9V106.5z"/>
		<path class="st0" d="M84.1,106.5h7v1.9h-2.6v8.3h-1.9v-8.3h-2.5V106.5z"/>
		<path class="st0" d="M96,106.5h2l3.9,10.2h-2l-0.8-2.1H95l-0.8,2.1h-2L96,106.5z M97,109.2l-1.3,3.5h2.7L97,109.2z"/>
		<path class="st0" d="M104.5,106.5h1.9v8.4h3.5v1.8h-5.5V106.5z"/>
		<path class="st0" d="M119.2,106.5h1.9l2.4,7.1l2.4-7.1h1.9l1.7,10.2h-1.9l-1.1-6.4l-2.2,6.4h-1.7l-2.1-6.4l-1.1,6.4h-1.9
			L119.2,106.5z"/>
		<path class="st0" d="M135.6,106.5h2l3.9,10.2h-2l-0.8-2.1h-4.2l-0.8,2.1h-2L135.6,106.5z M136.6,109.2l-1.3,3.5h2.7L136.6,109.2z"
			/>
		<path class="st0" d="M143.9,106.5h2.4c1.3,0,2.2,0.2,2.9,0.8c0.5,0.5,0.8,1.3,0.8,2.1c0,1.3-0.7,2.2-2,2.7l2.4,4.5h-2.1l-2.3-4.3
			h-0.2v4.3h-1.9V106.5z M145.9,110.5h0.9c0.9,0,1.3-0.4,1.3-1.1c0-0.7-0.5-1-1.4-1h-0.8V110.5z"/>
		<path class="st0" d="M153.3,106.5h1.9v3.5l2.8-3.5h2.3l-3.6,4.5l3.9,5.7h-2.3l-3.2-4.5v4.5h-1.9V106.5z"/>
		<path class="st0" d="M163,106.5h5.6v1.9h-3.6v1.8h3.6v1.9h-3.6v2.7h3.6v1.9H163V106.5z"/>
		<path class="st0" d="M171.4,106.5h7v1.9h-2.6v8.3h-1.9v-8.3h-2.5V106.5z"/>
		<path class="st0" d="M181.9,113.7c0.5,0.9,1,1.3,1.7,1.3c0.7,0,1.2-0.4,1.2-1c0-0.4-0.2-0.8-0.7-1.1c-2.1-1.8-3.4-2.7-3.4-4.2
			s1.3-2.6,2.8-2.6c1.3,0,2.1,0.7,3,1.6l-1.4,1.3c-0.5-0.7-1-1.1-1.5-1.1c-0.5,0-0.9,0.3-0.9,0.7c0,0.4,0.3,0.7,0.6,0.9
			c1.9,1.7,3.4,2.5,3.4,4.3c0,1.7-1.3,2.9-3.1,2.9c-1.5,0-2.5-0.7-3.3-2.2L181.9,113.7z"/>
		<path class="st0" d="M198.5,106.5h2l3.9,10.2h-2l-0.8-2.1h-4.2l-0.8,2.1h-2L198.5,106.5z M199.5,109.2l-1.3,3.5h2.7L199.5,109.2z"
			/>
		<path class="st0" d="M207,106.5h2.5c1.8,0,3.1,0.2,4.2,1.3c0.9,0.9,1.5,2.3,1.5,3.9c0,1.7-0.7,3.2-1.7,4c-1.2,0.9-2.4,0.9-3.9,0.9
			H207V106.5z M208.9,108.4v6.4h1c1.1,0,1.8-0.1,2.4-0.8c0.5-0.5,0.8-1.3,0.8-2.3c0-2.1-1.2-3.3-3.4-3.3H208.9z"/>
		<path class="st0" d="M217,106.5h2l2.6,7.2l2.6-7.2h2l-3.7,10.2h-1.9L217,106.5z"/>
		<path class="st0" d="M228.8,106.5h1.9v10.2h-1.9V106.5z"/>
		<path class="st0" d="M235.1,113.7c0.5,0.9,1,1.3,1.7,1.3c0.7,0,1.2-0.4,1.2-1c0-0.4-0.2-0.8-0.7-1.1c-2.1-1.8-3.4-2.7-3.4-4.2
			s1.3-2.6,2.8-2.6c1.3,0,2.1,0.7,3,1.6l-1.4,1.3c-0.5-0.7-1-1.1-1.5-1.1c-0.5,0-0.9,0.3-0.9,0.7c0,0.4,0.3,0.7,0.6,0.9
			c1.9,1.7,3.4,2.5,3.4,4.3c0,1.7-1.3,2.9-3.1,2.9c-1.5,0-2.5-0.7-3.3-2.2L235.1,113.7z"/>
		<path class="st0" d="M252.9,111.6c0,3-2.3,5.3-5.3,5.3c-3,0-5.3-2.4-5.3-5.4c0-3,2.4-5.3,5.3-5.3
			C250.4,106.2,252.9,108.5,252.9,111.6z M244.2,111.6c0,2.1,1.6,3.5,3.4,3.5c1.8,0,3.3-1.5,3.3-3.5c0-1.9-1.4-3.5-3.4-3.5
			C245.8,108.1,244.2,109.5,244.2,111.6z"/>
		<path class="st0" d="M255.6,106.5h2.4c1.3,0,2.2,0.2,2.9,0.8c0.5,0.5,0.8,1.3,0.8,2.1c0,1.3-0.7,2.2-2,2.7l2.4,4.5h-2.1l-2.3-4.3
			h-0.2v4.3h-1.9V106.5z M257.6,110.5h0.9c0.9,0,1.3-0.4,1.3-1.1c0-0.7-0.5-1-1.4-1h-0.8V110.5z"/>
		<path class="st0" d="M265.8,113.7c0.5,0.9,1,1.3,1.7,1.3c0.7,0,1.2-0.4,1.2-1c0-0.4-0.2-0.8-0.7-1.1c-2.1-1.8-3.4-2.7-3.4-4.2
			s1.3-2.6,2.8-2.6c1.3,0,2.1,0.7,3,1.6l-1.4,1.3c-0.5-0.7-1-1.1-1.5-1.1c-0.5,0-0.9,0.3-0.9,0.7c0,0.4,0.3,0.7,0.6,0.9
			c1.9,1.7,3.4,2.5,3.4,4.3c0,1.7-1.3,2.9-3.1,2.9c-1.5,0-2.5-0.7-3.3-2.2L265.8,113.7z"/>
	</g>
</g>
</svg>
